<svg width="1177" height="1320" xmlns="http://www.w3.org/2000/svg" xmlns:xlink="http://www.w3.org/1999/xlink" xml:space="preserve" overflow="hidden"><g transform="translate(-1621 -654)"><path d="M1956.53 1427.09C1941.82 1441.94 1848.85 1556.62 1826.36 1661.22 1820.38 1689.07 1760.79 1787.14 1763.06 1806.5 1765.33 1825.85 1886.32 1823 1922.08 1819.39 1957.84 1815.78 2305.17 1801.41 2305.17 1801.41 2305.17 1801.41 2576.13 1828.43 2575 1814.65 2573.86 1800.86 2542.44 1716.12 2523.66 1658.99 2500.35 1588 2451.53 1488.24 2424.44 1453.08 2397.31 1417.87 1956.5 1427.09 1956.5 1427.09Z" fill="#FFFFFF" fill-rule="evenodd"/><path d="M2078.98 835.214C2061.89 773.157 2003.8 688.006 1970 654 1970 654 2082.96 663.878 2116.04 666.563 2134.88 698.331 2170.81 789.403 2169.99 839L2079.02 835.18Z" fill="#FF9A00" fill-rule="evenodd"/><path d="M2144 671C2144 671 2187.26 782.633 2181.29 841.325L2265.4 873C2282.74 804.035 2273.98 711.784 2272.3 704.524L2144 671Z" fill="#FF324B" fill-rule="evenodd"/><path d="M2294.66 711C2294.66 711 2291.97 838.857 2267 903.336L2334.27 919C2366.07 871.457 2398 771.493 2398 771.493L2294.63 711Z" fill="#0064FF" fill-rule="evenodd"/><path d="M2423.19 791C2412.27 817.953 2325 948.692 2325 948.692 2325 948.692 2345.9 996.643 2377.27 985.25 2412.38 972.513 2484 895.818 2484 895.818 2484 895.818 2437.5 811.998 2423.19 791Z" fill="#00D181" fill-rule="evenodd"/><path d="M2089.32 924.987 2079 835.43C2140.09 809.916 2380.2 845.011 2427 1021 2427 1021 2281.91 902.838 2089.32 924.987Z" fill-rule="evenodd"/><path d="M1631.5 1819.5 2787.5 1819.5" stroke="#000000" stroke-width="20.8314" stroke-linecap="round" stroke-linejoin="round" stroke-miterlimit="10" fill="none" fill-rule="evenodd"/><path d="M1992.09 935.63C1917.91 966.718 1817.54 1088.11 1832.5 1272.61 1843.22 1405.08 1954.73 1512.27 2170.25 1512 2476.08 1511.59 2466.25 1432.42 2497.7 1382.28 2527.36 1335.03 2574.63 1066.72 2403.76 963.486 2232.88 860.248 2072.91 901.722 1992.09 935.596Z" fill-rule="evenodd"/><path d="M2407.42 1117.71C2442 1146.84 2432.25 1380.93 2366.34 1415.81 2260.38 1471.88 2075.6 1463.19 1977.13 1398.94 1893.43 1344.3 1918.33 1132.27 1964.42 1100.97 2069.83 1029.37 2269.93 1001.88 2407.42 1117.74Z" fill="#FFFFFF" fill-rule="evenodd"/><path d="M1815.29 1165.62C1815.29 1165.62 1842.21 1156.18 1879.57 1164.28 1909.09 1170.67 1973.2 1347.78 1832.31 1330.86 1803.79 1327.43 1815.29 1165.66 1815.29 1165.66Z" fill-rule="evenodd"/><path d="M1815.2 1166.16C1851.58 1160.11 1862.88 1325.75 1832.43 1330.81 1793.62 1337.28 1775.66 1172.73 1815.2 1166.16Z" fill="#FF9A00" fill-rule="evenodd"/><path d="M2553.61 1165.58C2553.61 1165.58 2526.43 1156.18 2488.68 1164.31 2458.91 1170.73 2394.39 1347.93 2536.6 1330.84 2565.4 1327.37 2553.61 1165.58 2553.61 1165.58Z" fill-rule="evenodd"/><path d="M2553.12 1166.16C2517.3 1160.14 2506.41 1325.79 2536.34 1330.82 2574.51 1337.21 2591.98 1172.69 2553.12 1166.16Z" fill="#FF9A00" fill-rule="evenodd"/><path d="M2120 1295.13C2146.89 1304.55 2220.74 1309.61 2249 1286" stroke="#000000" stroke-width="18.3907" stroke-linecap="round" stroke-miterlimit="8" fill="none" fill-rule="evenodd"/><path d="M1963.5 1426.5C1864.16 1521.27 1815.08 1679.64 1804.86 1705.12 1794.65 1730.6 1726.19 1819.5 1791.18 1819.5 1856.18 1819.5 1943.48 1819.5 1943.48 1819.5" stroke="#000000" stroke-width="20.8314" stroke-linecap="round" stroke-miterlimit="8" fill="none" fill-rule="evenodd"/><path d="M2401.72 1426.5C2501.14 1521.27 2548 1704.3 2553.49 1738.05 2558.98 1771.8 2603.19 1819.5 2552.18 1819.5 2501.17 1819.5 2398.5 1819.5 2398.5 1819.5" stroke="#000000" stroke-width="20.8314" stroke-linecap="round" stroke-miterlimit="8" fill="none" fill-rule="evenodd"/><path d="M2124.42 1231.74 2015.21 1244.5C2006.09 1196.5 2034.9 1148.5 2067.2 1148.5 2099.5 1148.5 2126.5 1192.51 2124.38 1231.74Z" stroke="#000000" stroke-width="12.8907" stroke-miterlimit="8" fill="#FFFFFF" fill-rule="evenodd"/><path d="M2106.8 1213.68C2107.52 1221 2106.26 1228.02 2103.36 1234.19L2035.59 1241C2031.64 1235.52 2028.92 1228.91 2028.2 1221.59 2026.02 1199.81 2041.86 1180.36 2063.53 1178.2 2085.27 1176.01 2104.62 1191.93 2106.8 1213.71Z" fill-rule="evenodd"/><path d="M2094.24 1175 2079 1200 2108 1199.18 2094.24 1175Z" fill="#FFFFFF" fill-rule="evenodd"/><path d="M2234.58 1227.74 2344.77 1240.5C2353.98 1192.5 2324.91 1144.5 2292.32 1144.5 2259.66 1144.5 2232.48 1188.51 2234.62 1227.74Z" stroke="#000000" stroke-width="12.8907" stroke-miterlimit="8" fill="#FFFFFF" fill-rule="evenodd"/><path d="M2251.2 1209.68C2250.47 1217 2251.75 1224.02 2254.68 1230.19L2323.31 1237C2327.31 1231.52 2330.07 1224.91 2330.8 1217.59 2333.01 1195.81 2316.96 1176.36 2295.02 1174.2 2273 1172.01 2253.41 1187.93 2251.2 1209.71Z" fill-rule="evenodd"/><path d="M2320.8 1174 2305 1199 2335 1198.18 2320.8 1174Z" fill="#FFFFFF" fill-rule="evenodd"/><path d="M1979.5 1556.5C1922.98 1610.53 1916.34 1719.41 1941.37 1774.5" stroke="#000000" stroke-width="20.625" stroke-linecap="round" stroke-linejoin="round" stroke-miterlimit="10" fill="none" fill-rule="evenodd"/><path d="M2398.5 1573.5C2410.45 1594.77 2450.93 1757.42 2414.88 1814.5" stroke="#000000" stroke-width="20.625" stroke-linecap="round" stroke-linejoin="round" stroke-miterlimit="10" fill="none" fill-rule="evenodd"/><path d="M2209.82 1709.1C2174.97 1796.9 2180.88 1890.37 2180.88 1890.37 2210.23 1909.01 2320.24 1943.5 2320.24 1943.5 2370.83 1851.61 2400.42 1824.24 2413.86 1764.99 2434.55 1673.75 2253.26 1599.68 2209.78 1709.1Z" stroke="#000000" stroke-width="20.8314" stroke-linecap="round" stroke-miterlimit="8" fill="#FFFFFF" fill-rule="evenodd"/><path d="M2157.76 1731.34C2157.76 1731.34 2216.63 1874.09 2187.32 1892.7 2158 1911.31 2068.44 1963.5 2068.44 1963.5 2016.33 1904.03 1957.09 1832.69 1941.06 1774.18 1920.63 1699.78 2107.06 1582.26 2157.76 1731.34Z" stroke="#000000" stroke-width="20.8314" stroke-linecap="round" stroke-miterlimit="8" fill="#FFFFFF" fill-rule="evenodd"/></g></svg>