<svg width="1377" height="1395" xmlns="http://www.w3.org/2000/svg" xmlns:xlink="http://www.w3.org/1999/xlink" xml:space="preserve" overflow="hidden"><defs><clipPath id="clip0"><rect x="2879" y="442" width="1377" height="1395"/></clipPath></defs><g clip-path="url(#clip0)" transform="translate(-2879 -442)"><path d="M4017.37 1148.15 4046.05 1021.73 4255.73 1069.3 4227.06 1195.71Z" fill="#0064FF" fill-rule="evenodd"/><path d="M4256 1069.58 4231.18 1063.94 4163.52 1086.29 4171.69 1050.5 4129.64 1040.98 4121.51 1076.7 4070.15 1027.54 4045.75 1022 4042.4 1036.75 4081.73 1074.46 4036.2 1064.15 4036.2 1064.15 4036.2 1064.15 4036.16 1064.15 4026.58 1106.34 4026.62 1106.34 4071.98 1116.65 4020.34 1133.67 4017 1148.42 4041.64 1153.99 4109.27 1131.64 4101.1 1167.46 4143.15 1176.95 4151.29 1141.16 4202.61 1190.43 4227.25 1196 4230.6 1181.25 4191.3 1143.57 4236.84 1153.85 4246.42 1111.73 4200.99 1101.45 4252.66 1084.33 4256 1069.58Z" fill="#FFFFFF" fill-rule="evenodd"/><path d="M4028.92 1097.27 4034.49 1072.73 4244.18 1120.3 4238.61 1144.83Z" fill="#FF324B" fill-rule="evenodd"/><path d="M4109.66 1169.01 4138.33 1042.6 4163.61 1048.33 4134.93 1174.75Z" fill="#FF324B" fill-rule="evenodd"/><path d="M4176.59 1096 4256 1068.97 4243.13 1066 4165 1093.34 4176.59 1096Z" fill="#FF324B" fill-rule="evenodd"/><path d="M4028.33 1151 4105 1123.84 4105 1123.84 4092.43 1121 4017 1148.4 4028.33 1151Z" fill="#FF324B" fill-rule="evenodd"/><path d="M4167 1138 4227.18 1196 4229 1187.92 4180.18 1140.99 4167 1138Z" fill="#FF324B" fill-rule="evenodd"/><path d="M4044 1029.93 4093.32 1076.94 4093.32 1076.94 4107 1080 4045.81 1022 4044 1029.93Z" fill="#FF324B" fill-rule="evenodd"/><path d="M3273.19 1174.41 3750.78 1256.54C3750.78 1256.54 3778.52 1228.79 3779 1241.4 3779.03 1241.46 4077 1129.14 4077 1227.38 4077 1310.64 3988.94 1304.98 3801.2 1467.69 3797.05 1474.11 3808.22 1574.55 3747.24 1661.49 3726.45 1785.73 3648.29 1823.93 3648.29 1823.93L3540.19 1823.11C3540.19 1823.11 3546.86 1727.41 3548.82 1700.07L3542.01 1699.96C3510.04 1699.79 3502.24 1691.93 3502.24 1691.93 3502.24 1691.93 3488.91 1824.27 3454.12 1824 3419.37 1823.72 3335.33 1821.6 3335.33 1821.6 3323.75 1743.35 3282.78 1624.36 3282.78 1624.36 3256.31 1583.24 3267.79 1481.81 3267.79 1481.81 3186.09 1291.72 3076.66 1230.58 3064.93 1136.42 3053.11 1041.24 3092.23 1020.8 3273.23 1174.38Z" fill="#FFFFFF" fill-rule="evenodd"/><path d="M3502.5 1693.15C3502.5 1693.15 3489.16 1825.78 3454.5 1825.5 3419.84 1825.22 3336.02 1823.09 3336.02 1823.09 3265.54 1638.12 3259.78 1428.98 3278.97 1389.5" stroke="#000000" stroke-width="20.8314" stroke-linecap="round" stroke-miterlimit="8" fill="none" fill-rule="evenodd"/><path d="M3790.71 1360.5C3795.6 1403.98 3808.6 1494.71 3789.1 1576.54 3773.79 1640.74 3734.5 1662.5 3734.5 1662.5" stroke="#000000" stroke-width="20.8314" stroke-linecap="round" stroke-miterlimit="8" fill="none" fill-rule="evenodd"/><path d="M3268.61 1482.5C3133.57 1213.64 3012.67 1154.09 3077.53 1073.3 3120.34 1019.97 3264.82 1143.85 3334.5 1250.13" stroke="#000000" stroke-width="20.8314" stroke-linecap="round" stroke-miterlimit="8" fill="none" fill-rule="evenodd"/><path d="M3801.89 1468.5C3890.4 1384.88 3984.76 1320.22 4010.48 1310.22 4092.95 1278.2 4090.69 1238.21 4074.68 1213.82 4038.75 1159.05 3837.68 1206.98 3751.5 1257.31" stroke="#000000" stroke-width="20.8314" stroke-linecap="round" stroke-miterlimit="8" fill="none" fill-rule="evenodd"/><path d="M3402.5 1665.5C3422.18 1677.14 3518.53 1709.13 3633.5 1691.11" stroke="#000000" stroke-width="20.8314" stroke-linecap="round" stroke-miterlimit="8" fill="none" fill-rule="evenodd"/><path d="M3545.66 1699.23C3543.71 1726.57 3518.04 1823.44 3540.97 1823.68L3648.76 1824.5C3648.76 1824.5 3742.12 1765.06 3747.5 1654.5" stroke="#000000" stroke-width="20.8314" stroke-linecap="round" stroke-miterlimit="8" fill="none" fill-rule="evenodd"/><path d="M3557.08 635.042C3547.67 571.394 3500.43 479.859 3471 442 3471 442 3581.82 465.692 3614.31 472.397 3629.13 506.233 3653.67 600.932 3646.82 650L3557.04 635.042Z" fill="#FF9A00" fill-rule="evenodd"/><path d="M3642 480C3642 480 3671.17 596.416 3658.06 654.16L3737.46 696C3763.04 629.462 3765.67 536.542 3764.89 529.122L3642 480.034Z" fill="#FF324B" fill-rule="evenodd"/><path d="M3785.98 539C3785.98 539 3767.65 665.374 3735 726.262L3799.78 750C3837.1 706.744 3881 611.552 3881 611.552L3785.95 539Z" fill="#0064FF" fill-rule="evenodd"/><path d="M2879.56 978.522 3079.43 906.84 3123.98 1031.06 2924.11 1102.74Z" fill-rule="evenodd"/><path d="M3903.88 634C3889.86 659.314 3788 777.802 3788 777.802 3788 777.802 3802.74 827.678 3835.02 820.245 3871.15 811.921 3951 744.883 3951 744.883 3951 744.883 3915.43 656.437 3903.88 634Z" fill="#00D181" fill-rule="evenodd"/><path d="M3556 725.213 3556.72 634.881C3620.39 616.987 3854.15 681.234 3879 862 3879 862 3749.64 726.727 3556 725.213Z" fill-rule="evenodd"/><path d="M3507.8 699.035C3449.87 699.482 3342.76 736.236 3268 858.04 3268 858.04 3126.06 941.957 3227.61 1006.5 3227.61 1006.5 3102.45 1224.38 3395.08 1313.11 3687.75 1401.83 3816.55 1323.62 3860.55 1289.34 3904.55 1255.09 4000.32 966.826 3853.13 832.106 3705.93 697.386 3507.8 699.001 3507.8 699.001Z" fill-rule="evenodd"/><path d="M3782.33 1074.23C3811.89 1107.76 3737.35 1285.38 3673.08 1302.57 3557.27 1333.52 3355.52 1285.49 3274.8 1199.79 3206.2 1126.97 3270.13 926.315 3325.41 919.429 3477.16 900.596 3663.98 939.915 3782.33 1074.19Z" fill="#FFFFFF" fill-rule="evenodd"/><path d="M3408.31 985.371C3428.38 992.857 3435.01 1024.75 3423.12 1056.61 3411.24 1088.46 3385.34 1108.22 3365.27 1100.73 3345.21 1093.25 3338.58 1061.36 3350.46 1029.5 3362.35 997.642 3388.25 977.885 3408.31 985.371Z" stroke="#000000" stroke-width="12.8907" stroke-miterlimit="8" fill="#FFFFFF" fill-rule="evenodd"/><path d="M3948.39 1059.61C3948.39 1059.61 3913.36 1035.99 3882.9 1048.82 3854.98 1060.54 3760.09 1213.96 3902.37 1213 3957.84 1212.62 3948.39 1059.61 3948.39 1059.61Z" fill-rule="evenodd"/><path d="M3948.17 1059.49C3910.55 1049.79 3840.48 1186.54 3895.05 1211.19 3952.96 1237.36 3998.87 1072.58 3948.17 1059.49Z" fill="#FF9A00" fill-rule="evenodd"/><path d="M2895.14 1021.95 3095.01 950.264 3108.4 987.603 2908.53 1059.28Z" fill="#FF324B" fill-rule="evenodd"/><path d="M2908.52 1059.29 3108.39 987.609 3123.96 1031.03 2924.09 1102.71Z" fill="#FF9A00" fill-rule="evenodd"/><path d="M3430.65 1148.5C3429.27 1171.42 3437.33 1222.16 3460.01 1226.3 3482.69 1230.47 3535.5 1167.73 3535.5 1167.73L3430.65 1148.5Z" stroke="#000000" stroke-width="20.625" stroke-linecap="round" stroke-linejoin="round" stroke-miterlimit="10" fill-rule="evenodd"/><path d="M3629.87 1033.34C3650.54 1038.96 3660.06 1070.11 3651.14 1102.92 3642.22 1135.73 3618.24 1157.78 3597.57 1152.16 3576.91 1146.54 3567.39 1115.39 3576.31 1082.58 3585.23 1049.77 3609.21 1027.72 3629.87 1033.34Z" stroke="#000000" stroke-width="12.8907" stroke-miterlimit="8" fill="#FFFFFF" fill-rule="evenodd"/><path d="M3390.28 1003.01C3408.02 1007.83 3417.75 1028.83 3412.01 1049.92 3406.28 1071 3387.26 1084.19 3369.52 1079.37 3351.79 1074.54 3342.06 1053.54 3347.79 1032.46 3353.53 1011.37 3372.55 998.185 3390.28 1003.01Z" fill-rule="evenodd"/><path d="M3412.78 1009 3389 1026.93 3420 1033 3412.78 1009Z" fill="#FFFFFF" fill-rule="evenodd"/><path d="M3615.92 1050.9C3633.66 1055.72 3643.39 1076.73 3637.65 1097.81 3631.92 1118.9 3612.9 1132.08 3595.16 1127.26 3577.43 1122.44 3567.7 1101.44 3573.43 1080.35 3579.17 1059.27 3598.19 1046.08 3615.92 1050.9Z" fill-rule="evenodd"/><path d="M3637.81 1057 3614 1074.9 3645 1081 3637.81 1057Z" fill="#FFFFFF" fill-rule="evenodd"/><path d="M3079.5 907.5 3136.5 1067.5" stroke="#000000" stroke-width="20.8314" stroke-linecap="round" stroke-miterlimit="8" fill="none" fill-rule="evenodd"/><path d="M3135.99 1067.5C3179.9 1096.46 3149.24 1203.95 3109.5 1172.94" stroke="#000000" stroke-width="20.625" stroke-linecap="round" stroke-miterlimit="8" fill="none" fill-rule="evenodd"/><path d="M3157.5 1123.5 3177.5 1178.5" stroke="#000000" stroke-width="20.8314" stroke-linecap="round" stroke-miterlimit="8" fill="none" fill-rule="evenodd"/><path d="M4037.5 1016.5 4001.5 1182.5" stroke="#000000" stroke-width="20.8314" stroke-linecap="round" stroke-miterlimit="8" fill="none" fill-rule="evenodd"/><path d="M4000.82 1194.5C3942.48 1223.85 3979.52 1302.37 4018.5 1271.39" stroke="#000000" stroke-width="20.625" stroke-linecap="round" stroke-miterlimit="8" fill="none" fill-rule="evenodd"/><path d="M3986.5 1271.5 3978.5 1306.5" stroke="#000000" stroke-width="20.8314" stroke-linecap="round" stroke-miterlimit="8" fill="none" fill-rule="evenodd"/></g></svg>