<svg width="1110" height="1324" xmlns="http://www.w3.org/2000/svg" xmlns:xlink="http://www.w3.org/1999/xlink" xml:space="preserve" overflow="hidden"><defs><clipPath id="clip0"><rect x="1543" y="509" width="1110" height="1324"/></clipPath></defs><g clip-path="url(#clip0)" transform="translate(-1543 -509)"><path d="M1949.69 1218 2416.27 1253.02 2433.18 1348.55C2434.11 1356.39 2474.27 1365.63 2474.85 1378.28 2474.89 1378.31 2566.75 1536.46 2566 1608.59 2565.14 1691.86 2519.07 1711.69 2441.5 1636.12 2437.38 1642.58 2420.09 1652.58 2415.82 1658.18 2395.95 1782.62 2354.87 1821.45 2354.87 1821.45L2209.92 1821.45C2209.92 1821.45 2215.87 1725.64 2217.62 1698.29L2210.78 1698.29C2178.8 1698.29 2141.12 1687.57 2141.12 1687.57 2141.12 1687.57 2104.61 1823 2069.82 1823L1930.65 1823C1918.48 1744.82 1960.39 1594.61 1960.39 1594.61 1933.64 1553.68 1934.88 1514.02 1934.88 1482.03 1934.88 1482.03 1863.19 1108.85 1949.73 1218Z" fill="#FFFFFF" fill-rule="evenodd"/><path d="M1948.5 1595.5C1948.5 1595.5 1919.32 1744.23 1931.46 1822.5L2063.41 1822.5C2098.08 1822.5 2134.5 1697.29 2134.5 1697.29" stroke="#000000" stroke-width="20.8314" stroke-linecap="round" stroke-miterlimit="8" fill="none" fill-rule="evenodd"/><path d="M2456.75 1356.5C2462.01 1400.03 2475.78 1490.83 2456.75 1572.96 2441.84 1637.39 2402.5 1659.5 2402.5 1659.5" stroke="#000000" stroke-width="20.8314" stroke-linecap="round" stroke-miterlimit="8" fill="none" fill-rule="evenodd"/><path d="M2475.31 1379.5C2475.31 1379.5 2576.17 1554.36 2565.74 1636.75 2555.32 1719.17 2469.67 1676.04 2438.5 1633.32" stroke="#000000" stroke-width="20.8314" stroke-linecap="round" stroke-miterlimit="8" fill="none" fill-rule="evenodd"/><path d="M2070.5 1664.5C2090.23 1676.07 2186.74 1707.54 2301.5 1688.53" stroke="#000000" stroke-width="20.8314" stroke-linecap="round" stroke-miterlimit="8" fill="none" fill-rule="evenodd"/><path d="M2213.96 1697.84C2212.21 1725.22 2187.13 1822.43 2210.21 1822.5L2355.43 1822.5C2355.43 1822.5 2411.92 1762.28 2416.5 1651.5" stroke="#000000" stroke-width="20.8314" stroke-linecap="round" stroke-miterlimit="8" fill="none" fill-rule="evenodd"/><path d="M2230.92 699.803C2220.28 636.556 2171.22 546.194 2141 509 2141 509 2252.53 530.494 2285.19 536.595 2300.7 570.018 2327.08 663.946 2321.15 713L2230.88 699.803Z" fill="#FF9A00" fill-rule="evenodd"/><path d="M2313 543C2313 543 2344.36 658.807 2332.34 716.727L2412.51 757C2436.81 690.016 2437.7 597.109 2436.78 589.693L2313 543Z" fill="#FF324B" fill-rule="evenodd"/><path d="M2458.47 599C2458.47 599 2442.52 725.902 2411 787.464L2476.32 810C2512.87 765.993 2555 669.838 2555 669.838L2458.47 599Z" fill="#0064FF" fill-rule="evenodd"/><path d="M2577.61 692C2564.02 717.666 2464 838.437 2464 838.437 2464 838.437 2479.73 888.188 2512.01 880.114 2548.12 871.078 2627 802.326 2627 802.326 2627 802.326 2589.59 714.333 2577.58 692Z" fill="#00D181" fill-rule="evenodd"/><path d="M2231.96 790.58 2231 700.391C2294.22 681.323 2528.79 741.036 2557 921 2557 921 2425.3 788.415 2231.96 790.58Z" fill-rule="evenodd"/><path d="M2183.07 764C2125.12 765.547 2018.68 804.36 1946.21 927.638 1946.21 927.638 1805.85 1014.3 1908.62 1076.97 1908.62 1076.97 1787.56 1297.34 2081.99 1380.6 2376.43 1463.83 2503.79 1383.11 2547.15 1348.01 2590.52 1312.87 2680.84 1022.66 2531.06 890.647 2381.28 758.637 2183.07 764.034 2183.07 764.034Z" fill-rule="evenodd"/><path d="M2629.83 1116.74C2629.83 1116.74 2594.26 1093.82 2563.96 1107.19 2536.21 1119.46 2444.01 1274.58 2586.62 1270.94 2642.19 1269.53 2629.83 1116.74 2629.83 1116.74Z" fill-rule="evenodd"/><path d="M2630.27 1116.42C2592.36 1107.39 2524.64 1245.76 2579.83 1269.42 2638.41 1294.53 2681.34 1128.56 2630.27 1116.42Z" fill="#FF9A00" fill-rule="evenodd"/><path d="M2038 1422.35C2003.4 1304.56 1896.11 1125.95 1891.27 1087.31 1887.01 1053.17 1878.76 994.277 1831.11 1062.42 1831.11 1062.42 1606.67 932.599 1717.98 1203.24 1786 1368.65 1934.56 1482 1934.56 1482" fill="#FFFFFF" fill-rule="evenodd"/><path d="M2464.84 1134.8C2495.08 1167.75 2423.75 1346.56 2359.69 1364.95 2244.25 1398.07 2041.18 1353.92 1958.71 1269.86 1888.58 1198.43 1948.83 996.821 2004.09 988.911 2155.79 967.21 2343.72 1002.94 2464.84 1134.8Z" fill="#FFFFFF" fill-rule="evenodd"/><path d="M2038.5 1423.23C2003.9 1305.33 1896.61 1126.55 1891.77 1087.87 1887.51 1053.69 1879.26 994.742 1831.61 1062.95 1831.61 1062.95 1607.17 933.003 1718.48 1203.91 1786.5 1369.48 1931.62 1479.5 1931.62 1479.5" stroke="#000000" stroke-width="20.8314" stroke-linecap="round" stroke-miterlimit="8" fill="none" fill-rule="evenodd"/><path d="M1940.55 1458.5C1927.7 1490.22 1919.28 1569.4 1966.5 1609.5" stroke="#000000" stroke-width="20.8314" stroke-linecap="round" stroke-miterlimit="8" fill="none" fill-rule="evenodd"/><path d="M1831.5 1063.5C1821.02 1077.29 1813.47 1103.83 1810.5 1116.5" stroke="#000000" stroke-width="20.8314" stroke-linecap="round" stroke-miterlimit="8" fill="none" fill-rule="evenodd"/><path d="M1615.5 1123.5C1617.43 1143.04 1620.83 1177.18 1643.5 1207.5" stroke="#000000" stroke-width="20.8314" stroke-linecap="round" stroke-miterlimit="8" fill="none" fill-rule="evenodd"/><path d="M1564.95 1090.5C1564.95 1090.5 1554.92 1194.52 1629.5 1269.5" stroke="#000000" stroke-width="20.8314" stroke-linecap="round" stroke-miterlimit="8" fill="none" fill-rule="evenodd"/><path d="M2026.5 1103.69C2038.93 1063.42 2127.5 1027.96 2127.5 1123.5" stroke="#000000" stroke-width="20.625" stroke-linecap="round" stroke-linejoin="round" stroke-miterlimit="10" fill="none" fill-rule="evenodd"/><path d="M2250.5 1146.01C2263.78 1090.25 2346.71 1089.53 2346.5 1169.5" stroke="#000000" stroke-width="20.625" stroke-linecap="round" stroke-linejoin="round" stroke-miterlimit="10" fill="none" fill-rule="evenodd"/><path d="M2146.5 1224.06C2149.72 1232.11 2205.85 1247.25 2220.5 1213.5" stroke="#000000" stroke-width="20.625" stroke-linecap="round" stroke-miterlimit="8" fill="none" fill-rule="evenodd"/></g></svg>