<svg width="2183" height="2475" xmlns="http://www.w3.org/2000/svg" xmlns:xlink="http://www.w3.org/1999/xlink" xml:space="preserve" overflow="hidden"><g transform="translate(780 0)"><g><g><g><path d="M4478.44 2310.73C4539.55 2137.1 4576.17 2349.23 4581.2 2396.21 4622.85 2422.14 4905.72 2608.03 4979.47 2665.36L5711.61 2746.97C5726.91 2751.08 5902.2 2729.55 5758.95 3081.25 5972.69 3122.82 5744.37 3361.75 5606.4 3270.2L5604.99 3270.39C5604.99 3270.39 5675.48 3529.43 5653.79 3668.99 5653.79 3668.99 5455.55 3668.99 5393.64 3668.99 5346.97 3668.99 5301.16 3507 5281.37 3427.18 5247.45 3434.4 5250.27 3442.56 5208.5 3443.3L5208.5 3443.3C5211.63 3492.17 5248.43 3668.99 5214.38 3668.99L4979.15 3668.99C4979.15 3668.99 4825.55 3552.3 4785.33 3283.64 4765.73 3185.72 4787.16 2937.35 4787.16 2937.35 4787.16 2937.35 4485.42 2638.99 4307.46 2466.21 4103.82 2268.49 4478.5 2310.73 4478.5 2310.73Z" fill="#FFFFFF" fill-rule="evenodd" transform="matrix(1.00003 0 0 1 -4716.45 -1207.91)"/><path d="M5606.26 3266.06C5606.26 3266.06 5676.82 3525.1 5655.11 3664.64 5655.11 3664.64 5456.68 3664.64 5394.7 3664.64 5332.72 3664.64 5288.53 3441.4 5288.53 3441.4" stroke="#000000" stroke-width="37.1001" stroke-linecap="round" stroke-miterlimit="8" fill="none" fill-rule="evenodd" transform="matrix(1.00003 0 0 1 -4716.45 -1207.91)"/><path d="M5445.17 3361.79C5410.12 3382.48 5262.6 3462.27 5058.78 3428.33" stroke="#000000" stroke-width="37.1001" stroke-linecap="round" stroke-miterlimit="8" fill="none" fill-rule="evenodd" transform="matrix(1.00003 0 0 1 -4716.45 -1207.91)"/><path d="M5209.14 3439.71C5212.28 3488.41 5249.02 3664.64 5215.03 3664.64L4980.18 3664.64C4980.18 3664.64 4806.04 3532.65 4780.3 3226.03" stroke="#000000" stroke-width="37.1001" stroke-linecap="round" stroke-miterlimit="8" fill="none" fill-rule="evenodd" transform="matrix(1.00003 0 0 1 -4716.45 -1207.91)"/><path d="M5233.48 1546.97C5212.89 1434.07 5123.13 1273.62 5068.35 1207.91 5068.35 1207.91 5267.43 1243.38 5325.74 1253.44 5354.2 1312.83 5403.66 1480.21 5394.44 1568.2L5233.48 1546.97Z" fill="#FF9A00" fill-rule="evenodd" transform="matrix(1.00003 0 0 1 -4716.45 -1207.91)"/><path d="M5374.68 1265.35C5374.68 1265.35 5433.76 1471.22 5413.84 1575.01L5557.96 1644.78C5599.56 1524.49 5598.63 1358.66 5596.81 1345.41L5374.68 1265.35Z" fill="#FF324B" fill-rule="evenodd" transform="matrix(1.00003 0 0 1 -4716.45 -1207.91)"/><path d="M5636.66 1361.14C5636.66 1361.14 5611.72 1587.91 5557.44 1698.6L5673.91 1737.03C5737.61 1657.53 5809.81 1484.88 5809.81 1484.88L5636.61 1361.08Z" fill="#0064FF" fill-rule="evenodd" transform="matrix(1.00003 0 0 1 -4716.45 -1207.91)"/><path d="M5851.3 1522.94C5827.81 1569.08 5653.16 1787.43 5653.16 1787.43 5653.16 1787.43 5682.49 1875.85 5739.65 1860.57 5803.63 1843.51 5942.09 1718.6 5942.09 1718.6 5942.09 1718.6 5873.22 1562.45 5851.25 1522.94Z" fill="#00D181" fill-rule="evenodd" transform="matrix(1.00003 0 0 1 -4716.45 -1207.91)"/><path d="M5237.86 1707.28 5233.7 1547.18C5345.84 1511.61 5765.22 1611.43 5820.25 1930.22 5820.25 1930.22 5582.15 1698.31 5237.79 1707.28Z" fill-rule="evenodd" transform="matrix(1.00003 0 0 1 -4716.45 -1207.91)"/><path d="M5155.17 1667.55C5051.91 1671.35 4862.8 1742.61 4735.94 1963.88 4735.94 1963.88 4487.3 2121.09 4671.75 2230.98 4671.75 2230.98 4460.01 2626.37 4986.48 2769.41 5512.95 2912.42 5738.54 2766.03 5815.19 2702.55 5891.82 2639.08 6047.46 2119.68 5777.96 1886.92 5508.48 1654.24 5155.22 1667.55 5155.22 1667.55Z" fill-rule="evenodd" transform="matrix(1.00003 0 0 1 -4716.45 -1207.91)"/><path d="M5664.29 2322.32C5718.69 2380.35 5595.17 2699.94 5481.5 2733.85 5276.73 2794.94 4914.65 2720.13 4766.32 2572.07 4640.29 2446.21 4743.68 2086.28 4841.81 2071.15 5111.27 2029.71 5446.31 2089.83 5664.22 2322.25Z" fill="#FFFFFF" fill-rule="evenodd" transform="matrix(1.00003 0 0 1 -4716.45 -1207.91)"/><path d="M5958.45 2288.07C5958.45 2288.07 5894.83 2247.83 5841.14 2272.27 5792.02 2294.63 5630.94 2572.73 5884.48 2563.54 5983.3 2559.99 5958.45 2288.02 5958.45 2288.02Z" fill-rule="evenodd" transform="matrix(1.00003 0 0 1 -4716.45 -1207.91)"/><path d="M5958.36 2287.7C5891 2272.46 5773.57 2518.51 5871.84 2559.41 5976.06 2602.77 6049.15 2308.28 5958.36 2287.7Z" fill="#FF9A00" fill-rule="evenodd" transform="matrix(1.00003 0 0 1 -4716.45 -1207.91)"/><path d="M5713.21 2743.91C5728.42 2748.02 5903.69 2748.02 5733.11 3145.97" stroke="#000000" stroke-width="37.1001" stroke-linecap="round" stroke-miterlimit="8" fill="none" fill-rule="evenodd" transform="matrix(1.00003 0 0 1 -4716.45 -1207.91)"/><path d="M5760.21 3078.09C6000.95 3124.91 5678.31 3423.33 5560.05 3212.21" stroke="#000000" stroke-width="37.1001" stroke-linecap="round" stroke-miterlimit="8" fill="none" fill-rule="evenodd" transform="matrix(1.00003 0 0 1 -4716.45 -1207.91)"/><path d="M4680.67 2469.29C4606.96 2411.98 4623.93 2419.46 4582.28 2393.6 4577.25 2346.57 4540.62 2134.49 4479.49 2308.14 4479.49 2308.14 4104.6 2265.91 4308.36 2463.6 4486.47 2636.4 4788.25 2934.62 4788.25 2934.62 4788.25 2934.62 4761.12 3248.46 4795.72 3309.59 4830.34 3370.75 4881.25 3380.93 4881.25 3380.93" stroke="#000000" stroke-width="37.1001" stroke-linecap="round" stroke-miterlimit="8" fill="none" fill-rule="evenodd" transform="matrix(1.00003 0 0 1 -4716.45 -1207.91)"/><path d="M5537.42 3006.72C5537.42 3006.72 5589.81 3109.38 5559.09 3212.1" stroke="#000000" stroke-width="37.1001" stroke-linecap="round" stroke-miterlimit="8" fill="none" fill-rule="evenodd" transform="matrix(1.00003 0 0 1 -4716.45 -1207.91)"/><path d="M4914.32 2289.43C4938.46 2156.09 5104.68 2100.11 5069.61 2340.11" stroke="#000000" stroke-width="36.7327" stroke-linecap="round" stroke-miterlimit="8" fill="none" fill-rule="evenodd" transform="matrix(1.00003 0 0 1 -4716.45 -1207.91)"/><path d="M5267.64 2418.85C5292.01 2239.14 5495 2183.06 5433.69 2451.5" stroke="#000000" stroke-width="36.7327" stroke-linecap="round" stroke-miterlimit="8" fill="none" fill-rule="evenodd" transform="matrix(1.00003 0 0 1 -4716.45 -1207.91)"/><path d="M5048.08 2451.5C5040.02 2474.29 5025.05 2602.96 5103.62 2621.71 5182.18 2640.47 5268.25 2527.88 5256.03 2506.43 5243.81 2484.99 5048.15 2451.5 5048.15 2451.5Z" stroke="#000000" stroke-width="22.9578" stroke-linecap="round" stroke-linejoin="round" stroke-miterlimit="10" fill-rule="evenodd" transform="matrix(1.00003 0 0 1 -4716.45 -1207.91)"/><path d="M4376.21 2008.21C4452.3 2009.87 4462.88 1989.96 4470.7 1917.13 4475.78 1870.21 4525.23 1806.14 4544.6 1761.86 4568.69 1706.8 4582.81 1576.64 4444.61 1532.66 4297.66 1485.87 4214.58 1618.47 4225.1 1707.84 4235 1791.62 4314.11 1862.13 4314.11 2018.99" fill="#FF9A00" fill-rule="evenodd" transform="matrix(1.00003 0 0 1 -4716.45 -1207.91)"/><path d="M4389.9 1955.46C4373.2 1876.35 4360.93 1775.04 4374.54 1749.77 4386.62 1727.32 4409.09 1724.93 4425.99 1736.15 4446.92 1750.08 4459.07 1781.84 4440.31 1813.29 4430.77 1829.25 4404.47 1835.69 4368.95 1824.76 4333.43 1813.85 4309.91 1766.14 4316.77 1722.23" stroke="#000000" stroke-width="37.1001" stroke-linecap="round" stroke-miterlimit="8" fill="none" fill-rule="evenodd" transform="matrix(1.00003 0 0 1 -4716.45 -1207.91)"/><path d="M4372.19 2126.03C4476.46 2123.21 4494.86 2064.12 4388.44 2061.35 4282.03 2058.6 4300.97 2006.91 4377.08 2008.56 4453.17 2010.22 4463.75 1990.32 4471.57 1917.57 4476.65 1870.71 4526.1 1806.72 4545.47 1762.47 4569.56 1707.47 4583.68 1577.45 4445.48 1533.52 4298.53 1486.78 4215.45 1619.24 4225.97 1708.51 4235.87 1792.22 4314.98 1862.64 4314.98 2019.32" stroke="#000000" stroke-width="37.1001" stroke-linecap="round" stroke-miterlimit="8" fill="none" fill-rule="evenodd" transform="matrix(1.00003 0 0 1 -4716.45 -1207.91)"/><path d="M4379.9 1304.51C4380.4 1323.39 4378.5 1376.39 4378.24 1389.79" stroke="#000000" stroke-width="37.1001" stroke-linecap="round" stroke-miterlimit="8" fill="none" fill-rule="evenodd" transform="matrix(1.00003 0 0 1 -4716.45 -1207.91)"/><path d="M4193.75 1354.98 4232.04 1428.09" stroke="#000000" stroke-width="37.1001" stroke-linecap="round" stroke-miterlimit="8" fill="none" fill-rule="evenodd" transform="matrix(1.00003 0 0 1 -4716.45 -1207.91)"/><path d="M4054.51 1501.19 4134.57 1534.26" stroke="#000000" stroke-width="37.1001" stroke-linecap="round" stroke-miterlimit="8" fill="none" fill-rule="evenodd" transform="matrix(1.00003 0 0 1 -4716.45 -1207.91)"/><path d="M4033.62 1699.6 4129.35 1689.16" stroke="#000000" stroke-width="37.1001" stroke-linecap="round" stroke-miterlimit="8" fill="none" fill-rule="evenodd" transform="matrix(1.00003 0 0 1 -4716.45 -1207.91)"/><path d="M4543.59 1325.4 4515.74 1408.94" stroke="#000000" stroke-width="37.1001" stroke-linecap="round" stroke-miterlimit="8" fill="none" fill-rule="evenodd" transform="matrix(1.00003 0 0 1 -4716.45 -1207.91)"/><path d="M4681.09 1450.71 4611.47 1506.41" stroke="#000000" stroke-width="37.1001" stroke-linecap="round" stroke-miterlimit="8" fill="none" fill-rule="evenodd" transform="matrix(1.00003 0 0 1 -4716.45 -1207.91)"/><path d="M4750.71 1636.95 4656.72 1647.39" stroke="#000000" stroke-width="37.1001" stroke-linecap="round" stroke-miterlimit="8" fill="none" fill-rule="evenodd" transform="matrix(1.00003 0 0 1 -4716.45 -1207.91)"/></g></g></g></g></svg>