<svg width="1287" height="1351" xmlns="http://www.w3.org/2000/svg" xmlns:xlink="http://www.w3.org/1999/xlink" xml:space="preserve" overflow="hidden"><defs><clipPath id="clip0"><rect x="2518" y="481" width="1287" height="1351"/></clipPath></defs><g clip-path="url(#clip0)" transform="translate(-2518 -481)"><path d="M3487.98 1411.33C3476.95 1337.38 3435.33 1282.33 3421.97 1279L2974.38 1308.17C2901.49 1320.23 2806.24 1481.35 2940.63 1503.11 2931.32 1604.33 2882.08 1736.39 2916.54 1821.95 2916.54 1821.95 3044.69 1828.82 3062.21 1821.95 3076.23 1816.41 3137.13 1708.72 3139.02 1666.15 3173.04 1671.41 3201.56 1672.34 3207.19 1673.68 3216.64 1675.88 3272.31 1808.61 3328.08 1817.55 3383.79 1826.52 3457.12 1819.13 3457.12 1819.13L3408.5 1632.27C3463.99 1576.3 3502.38 1508.36 3487.94 1411.36Z" fill="#FFFFFF" fill-rule="evenodd"/><path d="M3107.48 656C3087.2 595.047 3024.66 513.158 2989 481 2989 481 3102.9 485.187 3136.22 486.182 3156.73 516.899 3197.35 605.755 3199 655.211L3107.48 655.966Z" fill="#FF9A00" fill-rule="evenodd"/><path d="M3164 488C3164 488 3212.95 598.031 3209.92 657.389L3295.79 685C3309.66 614.784 3296.27 522.471 3294.2 515.267L3164.03 488Z" fill="#FF324B" fill-rule="evenodd"/><path d="M3316.91 521.034C3316.91 521.034 3320.62 648.981 3299 714.69L3366.86 727C3396.15 677.899 3423 576.325 3423 576.325L3316.95 521Z" fill="#0064FF" fill-rule="evenodd"/><path d="M3449.05 595C3439.52 622.395 3359 756.931 3359 756.931 3359 756.931 3382.26 803.654 3413.01 790.745 3447.39 776.327 3515 696.374 3515 696.374 3515 696.374 3464.37 615.186 3449.05 595Z" fill="#00D181" fill-rule="evenodd"/><path d="M3122.76 744.656 3108 655.346C3167.56 626.692 3408.56 649.829 3464 824 3464 824 3313.53 712.76 3122.76 744.656Z" fill-rule="evenodd"/><path d="M3071.73 726.719C3014.75 737.177 2915.63 791.941 2863.08 925.034 2863.08 925.034 2737.85 1032.36 2848.99 1078.46 2848.99 1078.46 2763.38 1314.99 3066.95 1351.93 3370.49 1388.85 3483.8 1289.43 3521.23 1248.01 3558.66 1206.6 3603.09 905.736 3434.86 798.305 3266.63 690.875 3071.77 726.754 3071.77 726.754Z" fill-rule="evenodd"/><path d="M3407.46 1049.29C3442.36 1077.22 3399.52 1265.09 3339.16 1293.19 3230.38 1343.77 3023.21 1331.41 2928.9 1260.96 2848.74 1201.11 2877.12 992.374 2930.41 976.019 3076.74 931.151 3267.66 937.521 3407.46 1049.29Z" fill="#FFFFFF" fill-rule="evenodd"/><path d="M2963.85 1458.5C2928.09 1513.16 2913.5 1669.38 2917.01 1818.44 2917.01 1818.44 3045.38 1825.32 3062.89 1818.44 3080.41 1811.57 3140.5 1667.87 3140.5 1667.87" stroke="#000000" stroke-width="20.625" stroke-linecap="round" stroke-miterlimit="8" fill="none" fill-rule="evenodd"/><path d="M3409.29 1632.5 3462.5 1815.66C3462.5 1815.66 3389.23 1823 3333.52 1814.08 3277.8 1805.15 3217.55 1672.59 3208.14 1670.36 3198.73 1668.13 3127.25 1667.03 3071.5 1645.85" stroke="#000000" stroke-width="20.625" stroke-linecap="round" stroke-miterlimit="8" fill="none" fill-rule="evenodd"/><path d="M3390.5 1267.5C3403.8 1270.83 3514.18 1343.74 3482.96 1453.5" stroke="#000000" stroke-width="20.625" stroke-linecap="round" stroke-miterlimit="8" fill="none" fill-rule="evenodd"/><path d="M3568.44 1006.49C3568.44 1006.49 3536.39 991.44 3501.53 1007.18 3473.77 1019.72 3408.35 1190.97 3549.44 1165.4 3604.41 1155.44 3568.44 1006.46 3568.44 1006.46Z" fill-rule="evenodd"/><path d="M3567.98 1006.05C3529.21 1003.06 3483.55 1149.28 3541.58 1163.99 3603.18 1179.59 3620.22 1010.1 3567.98 1006.05Z" fill="#FF9A00" fill-rule="evenodd"/><path d="M3054.5 1043.5C3033.53 1020.12 2989.97 1019.84 2967.5 1040.77" stroke="#000000" stroke-width="20.625" stroke-linecap="round" stroke-miterlimit="8" fill="none" fill-rule="evenodd"/><path d="M3313.5 1074.5C3288.69 1046.45 3245.31 1052.56 3226.5 1072.76" stroke="#000000" stroke-width="20.625" stroke-linecap="round" stroke-miterlimit="8" fill="none" fill-rule="evenodd"/><path d="M3184.68 1136.51C3189.78 1103.11 3171.05 1094.5 3131.72 1094.5 3086.82 1094.5 3073.5 1103.42 3073.5 1127.15 3073.5 1150.88 3179.54 1169.9 3184.64 1136.54Z" stroke="#000000" stroke-width="20.625" stroke-linecap="round" stroke-linejoin="round" stroke-miterlimit="10" fill-rule="evenodd"/><path d="M3760.05 1612.69 3583.52 1582.8C3583.52 1582.8 3554.59 1542.04 3563.42 1489.76 3572.25 1437.48 3612.97 1408.51 3612.97 1408.51L3789.5 1438.4C3778.95 1403.11 3758.85 1369.65 3726.55 1342.47 3671.72 1296.31 3594.27 1283.21 3527.31 1308.76 3497.21 1320.25 3472.61 1337.55 3453.09 1358.36 3441.51 1370.68 3424.82 1376.7 3408.19 1373.88L2990.08 1304.4C2972.28 1301.37 2957.92 1288.88 2951.52 1271.96 2943.14 1249.77 2931.08 1228.45 2915 1208.91 2847.25 1126.53 2726.61 1103.28 2633.29 1154.81 2605.12 1170.35 2581.96 1190.85 2563.82 1214.31L2759.22 1247.37C2759.22 1247.37 2788.15 1288.13 2776.36 1357.85 2764.58 1427.57 2723.9 1456.53 2723.9 1456.53L2528.5 1423.48C2537.91 1451.61 2553.03 1478.55 2574.51 1502.49 2645.7 1581.91 2767.29 1599.66 2858.34 1544.21 2879.96 1531.03 2898.37 1514.87 2913.63 1496.64 2925.21 1482.78 2942.9 1475.69 2960.7 1478.72L3378.81 1548.2C3395.47 1551.02 3409.25 1562.2 3416.16 1577.64 3427.77 1603.75 3445.33 1628.17 3469.96 1648.91 3524.8 1695.07 3602.25 1708.18 3669.21 1682.62 3708.62 1667.59 3738.61 1642.58 3760.12 1612.73Z" stroke="#000000" stroke-width="20.625" stroke-linecap="round" stroke-linejoin="round" stroke-miterlimit="10" fill="#0064FF" fill-rule="evenodd"/><path d="M3356.8 1569.54C3357.39 1492.27 3321.68 1543.72 3321.68 1543.72 3319.75 1523.2 3291.13 1494.43 3256.9 1495.01 3192.91 1496.1 3206.41 1553.45 3233.89 1589.58 3261.37 1625.72 3344.61 1676.55 3390 1649.25L3356.8 1569.51Z" fill="#FFFFFF" fill-rule="evenodd"/><path d="M3000.74 1516.86C2998.82 1496.19 2985.46 1421.2 2920.8 1432.69 2905.55 1435.42 2874.77 1447.53 2884.97 1478.97 2884.97 1478.97 2837.57 1427.34 2845.37 1500.78 2853.16 1574.21 2973.12 1617.07 3028.5 1560.44" stroke="#000000" stroke-width="20.625" stroke-linecap="round" stroke-linejoin="round" stroke-miterlimit="10" fill="#FFFFFF" fill-rule="evenodd"/><path d="M3356.97 1570.29C3355.25 1492.76 3321.92 1544.38 3321.92 1544.38 3320 1523.79 3291.45 1494.92 3257.29 1495.51 3193.45 1496.61 3206.92 1554.14 3234.34 1590.39 3261.76 1626.65 3379.82 1684.04 3430.5 1604.28" stroke="#000000" stroke-width="20.625" stroke-linecap="round" stroke-linejoin="round" stroke-miterlimit="10" fill="none" fill-rule="evenodd"/><path d="M3226.5 1047.5 3288.5 1025.5" stroke="#000000" stroke-width="20.625" stroke-linecap="round" stroke-linejoin="round" stroke-miterlimit="10" fill="none" fill-rule="evenodd"/><path d="M2989.5 989.5 3056.5 1018.5" stroke="#000000" stroke-width="20.625" stroke-linecap="round" stroke-linejoin="round" stroke-miterlimit="10" fill="none" fill-rule="evenodd"/><path d="M3369.65 1059.5C3359.86 1086.62 3317.68 1152.5 3370.77 1152.5 3423.86 1152.5 3383.88 1086.59 3369.65 1059.5Z" stroke="#000000" stroke-width="20.625" stroke-linecap="round" stroke-linejoin="round" stroke-miterlimit="10" fill="none" fill-rule="evenodd"/><path d="M3665.5 1249.5C3665.5 1249.5 3720.36 1251.52 3744.5 1289.5" stroke="#000000" stroke-width="20.625" stroke-linecap="round" stroke-linejoin="round" stroke-miterlimit="10" fill="none" fill-rule="evenodd"/><path d="M3645.5 1201.26C3687.33 1190.46 3756.04 1211.13 3794.5 1267.5" stroke="#000000" stroke-width="20.625" stroke-linecap="round" stroke-linejoin="round" stroke-miterlimit="10" fill="none" fill-rule="evenodd"/><path d="M2831.5 1611.5C2802.57 1644.01 2734.18 1664.87 2671.5 1638.59" stroke="#000000" stroke-width="20.625" stroke-linecap="round" stroke-linejoin="round" stroke-miterlimit="10" fill="none" fill-rule="evenodd"/></g></svg>