<svg width="2183" height="2475" xmlns="http://www.w3.org/2000/svg" xmlns:xlink="http://www.w3.org/1999/xlink" xml:space="preserve" overflow="hidden"><defs><clipPath id="clip0"><rect x="2980" y="0" width="2183" height="2475"/></clipPath><clipPath id="clip1"><rect x="3213" y="0" width="1718" height="2475"/></clipPath><clipPath id="clip2"><rect x="3213" y="0" width="1718" height="2475"/></clipPath><clipPath id="clip3"><rect x="3213" y="0" width="1718" height="2475"/></clipPath><clipPath id="clip4"><rect x="3213" y="0" width="1718" height="2475"/></clipPath></defs><g clip-path="url(#clip0)" transform="translate(-2980 0)"><g clip-path="url(#clip1)"><g clip-path="url(#clip2)"><g clip-path="url(#clip3)"><g clip-path="url(#clip4)"><path d="M4388.86 2263.02 3536.19 2329.58C3407.16 2350.97 3352.94 2173.23 3285.3 2117.14 3285.3 2117.14 3052.56 1886.97 3052.56 2368.86 3052.56 2500.12 3238.53 2636.56 3476.37 2675.11 3459.9 2854.54 3469.62 3088.59 3530.69 3240.25 3530.69 3240.25 3757.55 3252.44 3788.57 3240.25 3813.4 3230.45 3824.27 3039.57 3827.62 2964.1 3887.84 2973.42 3938.33 2975.07 3948.31 2977.44 3965.05 2981.34 3963.1 3216.63 4061.83 3232.45 4160.44 3248.36 4290.25 3235.27 4290.25 3235.27L4289.88 2895.4C4642.05 2835.6 4471.65 2237.37 4388.86 2263.02Z" fill="#FFFFFF" fill-rule="evenodd" transform="matrix(1.00016 0 0 1 285.772 -864.567)"/><path d="M3772.7 1174.61C3736.77 1066.62 3625.97 921.54 3562.8 864.567 3562.8 864.567 3764.59 871.985 3823.62 873.749 3859.95 928.167 3931.92 1085.59 3934.84 1173.21L3772.7 1174.55Z" fill="#FF9A00" fill-rule="evenodd" transform="matrix(1.00016 0 0 1 285.772 -864.567)"/><path d="M3872.83 878.74C3872.83 878.74 3959.57 1072.69 3954.21 1177.32L4106.32 1225.98C4130.89 1102.22 4107.17 939.501 4103.5 926.802L3872.89 878.74Z" fill="#FF324B" fill-rule="evenodd" transform="matrix(1.00016 0 0 1 285.772 -864.567)"/><path d="M4143.74 937.265C4143.74 937.265 4150.31 1163.94 4112.01 1280.36L4232.23 1302.17C4284.12 1215.18 4331.69 1035.22 4331.69 1035.22L4143.81 937.205Z" fill="#0064FF" fill-rule="evenodd" transform="matrix(1.00016 0 0 1 285.772 -864.567)"/><path d="M4376.82 1066.54C4360.04 1115.07 4218.31 1353.42 4218.31 1353.42 4218.31 1353.42 4259.25 1436.2 4313.39 1413.33 4373.89 1387.78 4492.91 1246.14 4492.91 1246.14 4492.91 1246.14 4403.78 1102.3 4376.82 1066.54Z" fill="#00D181" fill-rule="evenodd" transform="matrix(1.00016 0 0 1 285.772 -864.567)"/><path d="M3798.07 1332.46 3771.85 1175.12C3877.67 1124.64 4305.83 1165.4 4404.33 1472.24 4404.33 1472.24 4137.01 1276.27 3798.07 1332.46Z" fill-rule="evenodd" transform="matrix(1.00016 0 0 1 285.772 -864.567)"/><path d="M3709.36 1301.65C3608.42 1320.15 3432.81 1417.02 3339.71 1652.45 3339.71 1652.45 3117.84 1842.29 3314.75 1923.84 3314.75 1923.84 3163.07 2342.23 3700.9 2407.59 4238.66 2472.87 4439.41 2297.02 4505.72 2223.76 4572.04 2150.5 4650.75 1618.31 4352.71 1428.28 4054.66 1238.25 3709.44 1301.71 3709.44 1301.71Z" fill-rule="evenodd" transform="matrix(1.00016 0 0 1 285.772 -864.567)"/><path d="M4304.11 1872.69C4366.06 1922.03 4290.02 2253.99 4182.89 2303.63 3989.82 2393.01 3622.11 2371.16 3454.71 2246.69 3312.44 2140.94 3362.81 1772.11 3457.4 1743.22 3717.11 1663.94 4055.99 1675.19 4304.11 1872.69Z" fill="#FFFFFF" fill-rule="evenodd" transform="matrix(1.00016 0 0 1 285.772 -864.567)"/><path d="M3652.26 2160.53C3665.85 2185.25 3836.98 2286.71 3987.11 2167.42" stroke="#000000" stroke-width="36.5404" stroke-linecap="round" stroke-miterlimit="8" fill="none" fill-rule="evenodd" transform="matrix(1.00016 0 0 1 285.772 -864.567)"/><path d="M3962.3 2135.73C3962.3 2135.73 4005.85 2139.7 4010.14 2180.02" stroke="#000000" stroke-width="36.5404" stroke-linecap="round" stroke-miterlimit="8" fill="none" fill-rule="evenodd" transform="matrix(1.00016 0 0 1 285.772 -864.567)"/><path d="M3503.53 2592.81C3447.53 2745.99 3432.26 2990.48 3531.06 3235.82 3531.06 3235.82 3758.14 3248.01 3789.12 3235.82 3820.11 3223.63 3829.43 2968.85 3829.43 2968.85" stroke="#000000" stroke-width="36.5404" stroke-linecap="round" stroke-miterlimit="8" fill="none" fill-rule="evenodd" transform="matrix(1.00016 0 0 1 285.772 -864.567)"/><path d="M4306 2906.4 4291.64 3230.89C4291.64 3230.89 4161.76 3243.9 4062.99 3228.09 3964.22 3212.27 3966.09 2977.42 3949.42 2973.47 3932.73 2969.52 3806.01 2967.57 3707.19 2930.05" stroke="#000000" stroke-width="36.5404" stroke-linecap="round" stroke-miterlimit="8" fill="none" fill-rule="evenodd" transform="matrix(1.00016 0 0 1 285.772 -864.567)"/><path d="M4587.77 1795.55C4587.77 1795.55 4531.46 1768.89 4470.24 1796.78 4421.46 1818.99 4306.54 2122.39 4554.39 2077.09 4650.94 2059.44 4587.77 1795.5 4587.77 1795.5Z" fill-rule="evenodd" transform="matrix(1.00016 0 0 1 285.772 -864.567)"/><path d="M4588.55 1796.55C4519.86 1791.25 4438.97 2050.3 4541.78 2076.36 4650.91 2104 4681.1 1803.72 4588.55 1796.55Z" fill="#FF9A00" fill-rule="evenodd" transform="matrix(1.00016 0 0 1 285.772 -864.567)"/><path d="M3636.02 1817.03C3673.31 1823.94 3694.66 1877.56 3683.66 1936.79 3672.67 1996.02 3633.52 2038.43 3596.23 2031.5 3558.92 2024.59 3537.58 1970.96 3548.57 1911.74 3559.57 1852.51 3598.71 1810.1 3636.02 1817.03Z" stroke="#000000" stroke-width="22.8379" stroke-miterlimit="8" fill="#FFFFFF" fill-rule="evenodd" transform="matrix(1.00016 0 0 1 285.772 -864.567)"/><path d="M4037.69 1831.93C4075.48 1835.42 4101.63 1886.86 4096.1 1946.85 4090.57 2006.82 4055.47 2052.64 4017.69 2049.17 3979.91 2045.68 3953.76 1994.24 3959.29 1934.26 3964.8 1874.27 3999.92 1828.45 4037.69 1831.93Z" stroke="#000000" stroke-width="22.8379" stroke-miterlimit="8" fill="#FFFFFF" fill-rule="evenodd" transform="matrix(1.00016 0 0 1 285.772 -864.567)"/><path d="M3621.35 1856.75C3652.78 1865.29 3670.02 1902.49 3659.85 1939.85 3649.7 1977.22 3616 2000.57 3584.57 1992.03 3553.16 1983.49 3535.92 1946.29 3546.07 1908.92 3556.24 1871.56 3589.94 1848.21 3621.35 1856.75Z" fill-rule="evenodd" transform="matrix(1.00016 0 0 1 285.772 -864.567)"/><path d="M3660.31 1867.32 3619.49 1899.04 3672.64 1909.84 3660.31 1867.32Z" fill="#FFFFFF" fill-rule="evenodd" transform="matrix(1.00016 0 0 1 285.772 -864.567)"/><path d="M4031.49 1872.9C4062.9 1881.44 4080.14 1918.67 4069.98 1956.01 4059.83 1993.38 4026.12 2016.73 3994.71 2008.19 3963.3 1999.65 3946.06 1962.44 3956.21 1925.08 3966.36 1887.73 4000.07 1864.36 4031.49 1872.9Z" fill-rule="evenodd" transform="matrix(1.00016 0 0 1 285.772 -864.567)"/><path d="M4070.92 1885.04 4028.74 1915.44 4083.66 1925.79 4070.92 1885.04Z" fill="#FFFFFF" fill-rule="evenodd" transform="matrix(1.00016 0 0 1 285.772 -864.567)"/><path d="M4424.4 3242.85 4424.4 3242.85C4339.65 3297.45 4244.07 3300.01 4210.97 3248.57L3641.63 2390.08 3948.57 2192.42 4517.91 3050.91C4551.01 3102.34 4509.09 3188.3 4424.33 3242.91Z" stroke="#000000" stroke-width="36.5404" stroke-linecap="round" stroke-miterlimit="8" fill="#00D181" fill-rule="evenodd" transform="matrix(1.00016 0 0 1 285.772 -864.567)"/><path d="M4203.25 1928.44C4203.25 2275.8 3921.66 2557.38 3574.31 2557.38 3226.96 2557.38 2945.37 2275.8 2945.37 1928.44 2945.37 1581.09 3226.96 1299.51 3574.31 1299.51 3921.66 1299.51 4203.25 1581.09 4203.25 1928.44Z" stroke="#000000" stroke-width="36.5404" stroke-linecap="round" stroke-miterlimit="8" fill="#00D181" fill-rule="evenodd" transform="matrix(1.00016 0 0 1 285.772 -864.567)"/><path d="M4435.23 2509.51C4504.69 2560.69 4531.36 2864.21 4296.65 2910.7 4137.77 2942.15 4042.19 2830.84 4088.11 2738.41 4125.14 2663.77 4153.62 2723.37 4170.7 2702.83 4187.83 2682.3 4141.67 2642.03 4158.87 2629.47 4176.07 2616.93 4210.46 2637.04 4253.58 2639.46 4296.72 2641.91 4346.42 2601.19 4326.91 2506.89" fill="#FFFFFF" fill-rule="evenodd" transform="matrix(1.00016 0 0 1 285.772 -864.567)"/><path d="M4114.67 1929.33C4114.67 2227.27 3873.14 2468.8 3575.2 2468.8 3277.26 2468.8 3035.73 2227.27 3035.73 1929.33 3035.73 1631.39 3277.26 1389.86 3575.2 1389.86 3873.14 1389.86 4114.67 1631.39 4114.67 1929.33Z" stroke="#000000" stroke-width="36.5404" stroke-linecap="round" stroke-miterlimit="8" fill="#FFFFFF" fill-rule="evenodd" transform="matrix(1.00016 0 0 1 285.772 -864.567)"/><path d="M3475.98 2675.2C2989.65 2620.17 3049.58 2330.63 3046.29 2177.49 3044.64 2101.25 3196.45 2150.19 3216.3 2299.38 3223.54 2353.68 3229.32 2501.03 3278.96 2543.74L3475.98 2675.2Z" fill="#FFFFFF" fill-rule="evenodd" transform="matrix(1.00016 0 0 1 285.772 -864.567)"/><path d="M4390.83 2265.06C4534.16 2335.62 4570.1 2873.62 4297.5 2912.37 4160.62 2931.82 4028.55 2849.86 4074.29 2757.42 4111.23 2682.78 4154.78 2725 4171.87 2704.46 4188.97 2683.93 4142.92 2643.64 4160.07 2631.1 4177.22 2618.54 4211.54 2638.65 4254.56 2641.09 4297.55 2643.54 4347.14 2602.82 4327.67 2508.5" stroke="#000000" stroke-width="36.5404" stroke-linecap="round" stroke-miterlimit="8" fill="none" fill-rule="evenodd" transform="matrix(1.00016 0 0 1 285.772 -864.567)"/><path d="M3476.87 2676.08C2990.53 2621.05 3050.47 2331.51 3047.17 2178.37 3045.53 2102.14 3197.34 2151.07 3217.18 2300.26 3224.43 2354.56 3212.19 2470.66 3275.65 2481.8" stroke="#000000" stroke-width="36.5404" stroke-linecap="round" stroke-miterlimit="8" fill="none" fill-rule="evenodd" transform="matrix(1.00016 0 0 1 285.772 -864.567)"/><path d="M3591.87 1497.89C3740.24 1511.55 3842.95 1713.61 3821.26 1949.19 3799.58 2184.79 3661.71 2364.7 3513.33 2351.04 3364.95 2337.38 3262.27 2135.32 3283.95 1899.73 3305.64 1664.14 3443.51 1484.23 3591.87 1497.89Z" stroke="#000000" stroke-width="36.5404" stroke-linecap="round" stroke-miterlimit="8" fill="none" fill-rule="evenodd" transform="matrix(1.00016 0 0 1 285.772 -864.567)"/><path d="M3579.87 1658.89C3703.2 1692.42 3770.86 1838.48 3731 1985.12 3691.13 2131.74 3558.83 2223.44 3435.5 2189.91 3312.16 2156.37 3244.5 2010.31 3284.36 1863.67 3324.24 1717.04 3456.53 1625.35 3579.87 1658.89Z" fill-rule="evenodd" transform="matrix(1.00016 0 0 1 285.772 -864.567)"/><path d="M3734.49 1704.33 3569.88 1825.94 3784.25 1867.32 3734.49 1704.33Z" fill="#FFFFFF" fill-rule="evenodd" transform="matrix(1.00016 0 0 1 285.772 -864.567)"/></g></g></g></g></g></svg>