<svg width="2182" height="2475" xmlns="http://www.w3.org/2000/svg" xmlns:xlink="http://www.w3.org/1999/xlink" xml:space="preserve" overflow="hidden"><g transform="translate(-1109 0)"><g><g><g><g><path d="M4599.37 2523.29C4579.71 2391.65 4376.87 2308.21 4353.04 2302.21L3615.33 2288.02C3615.33 2288.02 3570.34 2253.83 3502.32 2197.5 3502.32 2197.5 3565.99 2097.11 3520.8 2087.64 3476.36 2078.45 3411.39 2150.76 3406.13 2197.5 3401.34 2191.25 3200.66 2422.42 3266.29 2550.21 3326.52 2667.48 3394.31 2718.49 3535.56 2634.98 3518.97 2815.2 3535.19 3098.91 3596.66 3251.24 3596.66 3251.24 3824.98 3263.47 3856.19 3251.24 3881.17 3241.4 3892.14 3049.68 3895.51 2973.88 3956.12 2983.25 4006.94 2984.9 4016.98 2987.27 4033.82 2991.19 4031.86 3227.51 4131.22 3243.41 4230.47 3259.38 4375.64 3246.22 4375.64 3246.22L4351.76 2920.61 4360.77 2904.88C4471.47 2961.28 4525.71 2846.34 4515.31 2801.2 4494.3 2710.36 4625.13 2695.92 4599.42 2523.24Z" fill="#FFFFFF" fill-rule="evenodd" transform="matrix(1.00047 0 0 1 -1702.2 -795.917)"/><path d="M3931.01 1130.61C3908.11 1018.47 3814.94 860.335 3758.79 795.917 3758.79 795.917 3959.06 827.3 4017.71 836.108 4047.46 894.777 4100.35 1060.62 4092.81 1148.47L3931.07 1130.55Z" fill="#FF9A00" fill-rule="evenodd" transform="matrix(1.00047 0 0 1 -1702.2 -795.917)"/><path d="M4066.83 847.554C4066.83 847.554 4130.33 1051.29 4112.4 1154.9L4258.64 1221.47C4298.06 1100.96 4293.82 935.91 4291.67 922.79L4066.83 847.554Z" fill="#FF324B" fill-rule="evenodd" transform="matrix(1.00047 0 0 1 -1702.2 -795.917)"/><path d="M4330.15 938.363C4330.15 938.363 4309.63 1164.91 4257.36 1276.3L4375.18 1312.28C4437.59 1231.82 4506.64 1058.3 4506.64 1058.3L4330.15 938.363Z" fill="#0064FF" fill-rule="evenodd" transform="matrix(1.00047 0 0 1 -1702.2 -795.917)"/><path d="M4548.73 1095.05C4526.08 1141.69 4355.29 1363.51 4355.29 1363.51 4355.29 1363.51 4386.48 1451.32 4443.53 1434.87 4507.35 1416.53 4643.74 1288.89 4643.74 1288.89 4643.74 1288.89 4571.52 1134.14 4548.73 1095.05Z" fill="#00D181" fill-rule="evenodd" transform="matrix(1.00047 0 0 1 -1702.2 -795.917)"/><path d="M3938.85 1292.34 3931.51 1131.58C4043.03 1093.64 4464.72 1185.45 4526.22 1504.59 4526.22 1504.59 4283.3 1276.41 3938.85 1292.34Z" fill-rule="evenodd" transform="matrix(1.00047 0 0 1 -1702.2 -795.917)"/><path d="M3853.59 1248.85C3750.71 1255.28 3563.96 1331.17 3443.03 1555.35 3443.03 1555.35 3199.09 1718.65 3385.78 1823.63 3385.78 1823.63 3184.67 2223.78 3713.27 2353.16 4241.94 2482.57 4463.12 2330.67 4537.99 2265.37 4612.87 2200.08 4754.83 1677.49 4480.19 1452.02 4205.54 1226.55 3853.59 1248.79 3853.59 1248.79Z" fill-rule="evenodd" transform="matrix(1.00047 0 0 1 -1702.2 -795.917)"/><path d="M4378.13 1890.29C4434.01 1946.95 4318.64 2269.81 4205.92 2306.63 4002.84 2372.96 3639 2307.36 3487.04 2162.99 3357.84 2040.31 3452.02 1677.63 3549.77 1660.05 3818.07 1611.73 4154.39 1663.36 4378.13 1890.29Z" fill="#FFFFFF" fill-rule="evenodd" transform="matrix(1.00047 0 0 1 -1702.2 -795.917)"/><path d="M3700.93 2101.7C3744.51 2127.34 3861.04 2131.51 3918.16 2075.26" stroke="#000000" stroke-width="36.7244" stroke-linecap="round" stroke-miterlimit="8" fill="none" fill-rule="evenodd" transform="matrix(1.00047 0 0 1 -1702.2 -795.917)"/><path d="M3363.51 2222.5C3363.51 2222.5 3458.23 2089.79 3520.55 2086.89 3582.93 2084 3517.69 2185.21 3517.69 2185.21 3517.69 2185.21 3636.45 2255.97 3589.23 2379.7 3571.8 2425.39 3416.96 2404.22 3416.96 2404.22L3363.51 2222.55Z" fill="#FFFFFF" fill-rule="evenodd" transform="matrix(1.00047 0 0 1 -1702.2 -795.917)"/><path d="M3693.8 1676.41C3693.8 1676.41 3651.32 1727.07 3586.97 1713.17" stroke="#000000" stroke-width="36.7244" stroke-linecap="round" stroke-miterlimit="8" fill="none" fill-rule="evenodd" transform="matrix(1.00047 0 0 1 -1702.2 -795.917)"/><path d="M4187.02 1827.76C4187.02 1827.76 4120.31 1821.44 4094.43 1760.1" stroke="#000000" stroke-width="36.7244" stroke-linecap="round" stroke-miterlimit="8" fill="none" fill-rule="evenodd" transform="matrix(1.00047 0 0 1 -1702.2 -795.917)"/><path d="M3563.91 2502.6C3526.47 2642.43 3499.42 3000.36 3598.72 3246.77 3598.72 3246.77 3826.92 3259.02 3858.06 3246.77 3889.2 3234.54 3898.57 2978.62 3898.57 2978.62" stroke="#000000" stroke-width="36.7244" stroke-linecap="round" stroke-miterlimit="8" fill="none" fill-rule="evenodd" transform="matrix(1.00047 0 0 1 -1702.2 -795.917)"/><path d="M4377.54 2915.69 4363.09 3241.82C4363.09 3241.82 4232.45 3254.89 4133.11 3239.01 4033.75 3223.11 4035.66 2987.08 4018.87 2983.1 4002.09 2979.13 3901.83 2966.47 3802.42 2928.83" stroke="#000000" stroke-width="36.7244" stroke-linecap="round" stroke-miterlimit="8" fill="none" fill-rule="evenodd" transform="matrix(1.00047 0 0 1 -1702.2 -795.917)"/><path d="M3537.5 2647.72C3453.3 2698 3340 2710.48 3279.34 2592.13 3213.94 2464.35 3413.52 2051.86 3521.46 2088.21 3574.97 2106.19 3524.44 2184.59 3470.32 2230.58" stroke="#000000" stroke-width="36.7244" stroke-linecap="round" stroke-miterlimit="8" fill="none" fill-rule="evenodd" transform="matrix(1.00047 0 0 1 -1702.2 -795.917)"/><path d="M4343.23 2265.78C4385.56 2318.58 4577.27 2413.32 4596.8 2545.03 4622.46 2717.71 4489.86 2703.7 4514.24 2787.76 4528.04 2835.35 4472.4 3027.6 4304.38 2862.33 4228.6 2787.76 4291.49 2699.35 4334.19 2648.04 4354.52 2623.62 4369.37 2558.54 4296.26 2540.93" stroke="#000000" stroke-width="36.7244" stroke-linecap="round" stroke-miterlimit="8" fill="none" fill-rule="evenodd" transform="matrix(1.00047 0 0 1 -1702.2 -795.917)"/><path d="M4670.95 1848.15C4670.95 1848.15 4618.01 1814.78 4553.61 1835.35 4502.33 1851.76 4351.69 2141.02 4604.16 2125.4 4702.57 2119.33 4670.95 1848.15 4670.95 1848.15Z" fill-rule="evenodd" transform="matrix(1.00047 0 0 1 -1702.2 -795.917)"/><path d="M4671.29 1848.77C4602.98 1835.26 4490.84 2083.91 4590.95 2122.18 4697.19 2162.78 4763.29 1866.93 4671.29 1848.77Z" fill="#FF9A00" fill-rule="evenodd" transform="matrix(1.00047 0 0 1 -1702.2 -795.917)"/><path d="M3685.22 1756.78C3721.37 1768.93 3735.04 1825.29 3715.76 1882.69 3696.47 1940.08 3651.55 1976.76 3615.41 1964.62 3579.26 1952.47 3565.58 1896.1 3584.87 1838.71 3604.15 1781.32 3649.08 1744.64 3685.22 1756.78Z" stroke="#000000" stroke-width="22.9529" stroke-miterlimit="8" fill="#FFFFFF" fill-rule="evenodd" transform="matrix(1.00047 0 0 1 -1702.2 -795.917)"/><path d="M3700.04 1841.49C3698.56 1851.73 3694.93 1862.07 3689.03 1871.81 3668.8 1905.13 3629.63 1918.36 3601.48 1901.39 3573.37 1884.42 3566.97 1843.7 3587.2 1810.44 3607.45 1777.13 3646.6 1763.9 3674.77 1780.81 3685.15 1787.06 3692.54 1796.55 3696.78 1807.75L3660.56 1821.4 3700.04 1841.49Z" fill-rule="evenodd" transform="matrix(1.00047 0 0 1 -1702.2 -795.917)"/><path d="M4083.87 1828.63C4120.02 1840.78 4133.7 1897.15 4114.41 1954.54 4095.13 2011.93 4050.19 2048.61 4014.04 2036.46 3977.91 2024.32 3964.24 1967.96 3983.52 1910.56 4002.79 1853.17 4047.73 1816.49 4083.87 1828.63Z" stroke="#000000" stroke-width="22.9529" stroke-miterlimit="8" fill="#FFFFFF" fill-rule="evenodd" transform="matrix(1.00047 0 0 1 -1702.2 -795.917)"/><path d="M4098.88 1914.49C4097.41 1924.73 4093.77 1935.08 4087.88 1944.82 4067.65 1978.13 4028.48 1991.36 4000.33 1974.39 3972.21 1957.42 3965.82 1916.7 3986.05 1883.44 4006.29 1850.12 4045.45 1836.91 4073.62 1853.81 4084 1860.06 4091.39 1869.55 4095.63 1880.75L4059.41 1894.41 4098.88 1914.49Z" fill-rule="evenodd" transform="matrix(1.00047 0 0 1 -1702.2 -795.917)"/><path d="M3503.62 2198.12C3523.99 2198.12 3602.91 2218.33 3591.12 2333 3585.65 2385.85 3529.21 2413.96 3529.21 2413.96 3529.21 2413.96 3531.91 2450.96 3474.79 2502.6" stroke="#000000" stroke-width="36.7244" stroke-linecap="round" stroke-linejoin="round" stroke-miterlimit="10" fill="none" fill-rule="evenodd" transform="matrix(1.00047 0 0 1 -1702.2 -795.917)"/><path d="M3117.68 1161.92C3105.68 1098.63 3233.06 922.938 3322.23 1026.35 3411.4 1129.69 3253.65 1212.18 3307.54 1320.3" stroke="#000000" stroke-width="36.7244" stroke-linecap="round" stroke-miterlimit="8" fill="none" fill-rule="evenodd" transform="matrix(1.00047 0 0 1 -1702.2 -795.917)"/><path d="M3328.47 1375.06C3303.68 1397.02 3332.49 1436.55 3358.25 1414.34 3393.55 1383.91 3343.67 1361.57 3328.47 1375.06Z" fill-rule="evenodd" transform="matrix(1.00047 0 0 1 -1702.2 -795.917)"/><path d="M3432.06 1105.3C3442.69 1072.81 3547.21 1024.12 3562.22 1095.04 3577.21 1166.02 3482.52 1163.65 3479.85 1227.71" stroke="#000000" stroke-width="36.7244" stroke-linecap="round" stroke-miterlimit="8" fill="none" fill-rule="evenodd" transform="matrix(1.00047 0 0 1 -1702.2 -795.917)"/><path d="M3481.29 1266C3455.37 1265.27 3438.72 1294.26 3468.13 1304.61 3507.4 1318.38 3505.81 1266.67 3481.29 1266Z" fill-rule="evenodd" transform="matrix(1.00047 0 0 1 -1702.2 -795.917)"/></g></g></g></g></g></svg>